<?xml version="1.0" standalone="no"?>
<!DOCTYPE svg PUBLIC "-//W3C//DTD SVG 20010904//EN"
 "http://www.w3.org/TR/2001/REC-SVG-20010904/DTD/svg10.dtd">
<svg version="1.0" xmlns="http://www.w3.org/2000/svg"
 width="500.000000pt" height="500.000000pt" viewBox="0 0 500.000000 500.000000"
 preserveAspectRatio="xMidYMid meet">

<g transform="translate(0.000000,500.000000) scale(0.100000,-0.100000)"
fill="#000000" stroke="none">
<path d="M1839 2642 c-149 -76 -123 -284 42 -333 57 -18 140 1 191 41 l38 31
0 -36 0 -35 60 0 60 0 0 110 c0 104 1 112 25 135 29 30 55 32 86 6 22 -18 24
-28 27 -135 l4 -116 54 0 54 0 0 40 c0 22 3 40 6 40 4 0 24 -15 45 -34 38 -35
91 -56 140 -56 43 0 115 29 144 60 l27 28 -39 21 -40 20 -40 -20 c-26 -13 -50
-18 -66 -14 -31 8 -72 50 -62 64 4 7 51 11 125 11 65 0 121 4 125 9 3 6 1 28
-4 50 l-9 41 70 0 c58 0 69 -3 65 -15 -4 -8 -37 -61 -75 -117 -38 -57 -72
-109 -76 -115 -6 -10 31 -13 168 -13 l176 0 0 30 c0 17 3 30 6 30 4 0 21 -13
40 -30 56 -49 102 -50 207 -5 12 5 17 3 17 -9 0 -13 11 -16 55 -16 l55 0 0
175 0 175 -55 0 c-44 0 -55 -3 -55 -16 0 -9 -3 -14 -7 -12 -93 48 -152 48
-210 1 -58 -47 -75 -87 -70 -165 l4 -68 -68 0 c-38 0 -69 2 -69 5 0 3 36 59
80 125 44 66 80 122 80 125 0 3 -76 5 -170 5 l-170 0 0 -36 0 -36 -32 28 c-88
74 -188 71 -273 -7 l-44 -40 -15 29 c-18 34 -87 72 -132 72 -16 0 -44 -9 -63
-21 -31 -18 -35 -19 -43 -5 -7 12 -24 16 -63 16 l-55 0 0 -45 0 -45 -38 38
c-66 66 -148 78 -233 34z m141 -72 c30 -30 17 -40 -51 -40 -52 0 -59 2 -59 20
0 41 76 54 110 20z m735 0 c26 -29 8 -42 -55 -38 -57 3 -71 16 -45 42 23 23
78 20 100 -4z m686 -29 c17 -18 29 -40 29 -56 0 -16 -12 -38 -29 -56 -18 -17
-40 -29 -56 -29 -35 0 -85 50 -85 85 0 35 50 85 85 85 16 0 38 -12 56 -29z
m-1291 -111 l0 -40 -45 22 c-40 20 -46 20 -62 6 -50 -43 -143 -17 -143 41 0 7
43 11 125 11 l125 0 0 -40z"/>
<path d="M1350 2651 c0 -5 40 -83 88 -173 l88 -163 40 -3 40 -3 64 118 c109
202 120 222 120 228 0 3 -31 5 -69 5 l-68 0 -39 -90 c-21 -49 -41 -90 -44 -90
-4 0 -26 41 -49 90 l-44 90 -63 0 c-35 0 -64 -4 -64 -9z"/>
<path d="M3590 2430 c-48 -48 -2 -139 63 -126 40 8 55 23 63 63 13 65 -78 111
-126 63z"/>
</g>
</svg>
